<?xml version="1.0" encoding="UTF-8"?>
<svg id="Layer_2" data-name="Layer 2" xmlns="http://www.w3.org/2000/svg" viewBox="0 0 576.03 479.32">
  <defs>
    <style>
      .cls-1 {
        fill: #f5e3dd;
        stroke: #f5e3dd;
      }

      .cls-1, .cls-2, .cls-3, .cls-4, .cls-5, .cls-6, .cls-7 {
        stroke-miterlimit: 10;
      }

      .cls-1, .cls-3, .cls-4, .cls-6, .cls-7 {
        stroke-width: 12px;
      }

      .cls-2, .cls-4, .cls-6 {
        fill: none;
      }

      .cls-2, .cls-5 {
        stroke: #6a0a26;
        stroke-width: 7px;
      }

      .cls-3 {
        fill: #dbc6bc;
        stroke: #dbc6bc;
      }

      .cls-4 {
        stroke: #e7caca;
      }

      .cls-5 {
        fill: #6a0a26;
      }

      .cls-6 {
        stroke: #cf9695;
      }

      .cls-7 {
        fill: #8c3c51;
        stroke: #8c3c51;
      }
    </style>
  </defs>
  <g id="Layer_1-2" data-name="Layer 1">
    <line class="cls-2" x1="6" y1="434.77" x2="539.8" y2="28.67"/>
    <path class="cls-3" d="m404.62,268.72l-153.72,153.72-153.72-153.72C-12.17,159.37,141.55,5.64,250.9,114.99c110.09-110.09,263.81,43.64,153.72,153.72Z"/>
    <path class="cls-4" d="m458.35,274.03l-196.8,196.8-196.8-196.8C-75.24,134.04,121.56-62.76,261.55,77.23c140.93-140.93,337.74,55.87,196.8,196.8Z"/>
    <path class="cls-7" d="m385.5,266.35l-134.58,134.58-134.58-134.58C20.61,170.63,155.19,36.05,250.92,131.78c96.38-96.38,230.95,38.2,134.58,134.58Z"/>
    <path class="cls-1" d="m338.67,260.57l-87.69,87.69-87.69-87.69c-62.37-62.37,25.31-150.06,87.69-87.69,62.79-62.79,150.48,24.89,87.69,87.69Z"/>
    <path class="cls-6" d="m447.64,274.03l-196.8,196.8L54.04,274.03C-85.95,134.04,110.85-62.76,250.84,77.23c140.93-140.93,337.74,55.87,196.8,196.8Z"/>
    <polygon class="cls-5" points="555.59 42.45 530.08 10.45 570.55 4.36 555.59 42.45"/>
  </g>
</svg>