<?xml version="1.0" encoding="UTF-8"?>
<svg id="Layer_2" data-name="Layer 2" xmlns="http://www.w3.org/2000/svg" viewBox="0 0 615.41 558.77">
  <defs>
    <style>
      .cls-1 {
        stroke: #76152f;
      }

      .cls-1, .cls-2, .cls-3, .cls-4, .cls-5, .cls-6, .cls-7 {
        fill: none;
        stroke-miterlimit: 10;
        stroke-width: 12px;
      }

      .cls-2 {
        stroke: #fff;
      }

      .cls-3 {
        stroke: #c21f47;
      }

      .cls-4 {
        stroke: #a91d3d;
      }

      .cls-5 {
        stroke: #f16c92;
      }

      .cls-6 {
        stroke: #e42b5c;
      }

      .cls-7 {
        stroke: #f0517a;
      }
    </style>
  </defs>
  <g id="Layer_1-2" data-name="Layer 1">
    <path class="cls-1" d="m549.64,308.03l-242.25,242.25-242.25-242.25C-107.19,135.71,135.07-106.55,307.39,65.77c173.48-173.48,415.74,68.77,242.25,242.25Z"/>
    <path class="cls-4" d="m543.46,307.26l-236.07,236.07-236.07-236.07C-96.59,139.34,139.47-96.72,307.4,71.2c169.05-169.05,405.12,67.01,236.07,236.07Z"/>
    <path class="cls-3" d="m537.15,306.65l-229.35,229.35-229.86-229.86C-85.57,142.64,143.78-86.71,307.29,76.79c164.24-164.24,394.1,65.62,229.86,229.86Z"/>
    <path class="cls-6" d="m531.44,307.13l-224.03,224.03-224.03-224.03C-75.98,147.77,148.05-76.27,307.41,83.09c160.43-160.43,384.47,63.6,224.03,224.03Z"/>
    <path class="cls-7" d="m522,304.61l-214.57,214.57-214.57-214.57C-59.78,151.98,154.79-62.59,307.42,90.04c153.66-153.66,368.23,60.91,214.57,214.57Z"/>
    <path class="cls-5" d="m514.03,305.46l-206.36,206.36-206.67-206.67C-46,158.15,160.36-48.21,307.36,98.8c147.78-147.78,354.44,58.89,206.67,206.67Z"/>
    <path class="cls-2" d="m504.25,302.42l-196.8,196.8-196.8-196.8C-29.35,162.43,167.46-34.37,307.45,105.62c140.93-140.93,337.74,55.87,196.8,196.8Z"/>
  </g>
</svg>